<?xml version="1.0" encoding="UTF-8"?><svg id="Layer_1" xmlns="http://www.w3.org/2000/svg" viewBox="0 0 309.53 192.11"><defs><style>.cls-1{fill:#fff;}</style></defs><path class="cls-1" d="M308.37,2.78C308.01,1.44,306.97,0,305.56,0c-13.09,0-24.21,2.9-34.09,11.53-1.41,1.23-3.06,1.16-4.49,0-10.29-8.27-19.65-13.09-33.49-11.03-1.4.21-3.89.61-4.22,2.2-3.88,18.98,6.8,36.15,22.35,46.36,4.56,8.96-2.29,19.55-11.01,23.71-7.33,3.49-15.4,5.2-23.58,5.77-15.14,1.05-28.22-4.96-40.58-12.92l-22.5-14.5c-19.92-12.83-42.17-19.71-65.78-21.34-17.98-1.25-39.54-2.49-57.17.9-12.82,2.46-25.09,7.6-27.37,21.86,23.68,5.55,45.96,14.92,66.18,28.2,10.69,7.02,20.01,14.99,28.77,24.26,10.34,10.95,22.09,19.69,35.65,26.22l7.2,13.56c7.03,13.24,16,30.32,26.72,40.51,2.79,2.65,6.18,4.67,9.79,5.3,3.5.61,6.7-.54,8.32-3.72,3.89-7.65,1.94-23.87.76-32.78l-1.41-10.58c29.66,1.22,55.46-5.41,83.1-14.44,10.18-15.83,16.71-40.53,17.02-58.7l.37-21.93c14.53-10.84,27.41-26.72,22.24-45.65ZM98.13,67.4c-3.57.57-7.27-2-7.8-5.78-.52-3.68,1.84-7.28,5.92-7.89,3.72-.55,7.1,2.21,7.69,5.63.66,3.82-1.91,7.42-5.8,8.04Z"/><path class="cls-1" d="M85.76,132.35c14.16,15.16,32.9,25.27,53.18,31.05l-7.72-14.47-4.97-9.28c-12.53-6.64-23.87-14.76-33.72-25.17-9.53-10.06-19.47-18.85-31.31-26.26-18.36-11.5-38.23-19.92-59.81-24.88-1.16,5.91-1.62,11.7-1.34,17.42,29.77,10.29,64.25,28.64,85.68,51.58Z"/><path class="cls-1" d="M108.89,163.19c-10.72-5.69-20.49-12.32-28.91-21.08-7.01-7.3-14.08-13.79-22.38-19.69-17.41-12.38-36.19-22.17-56.6-29.63.87,6.5,2.27,12.11,4.28,18.05,17.92,7.59,34.64,16.74,50.3,28.11,8.05,5.84,14.88,12.17,21.8,19.3,15.3,15.77,34.33,27.04,55.21,33.79,8.72.21,17.01.08,25.4-1.21-4.2-4.93-7.33-8.94-10.53-13.62-13.53-3.39-26.28-7.69-38.56-14.01Z"/><path class="cls-1" d="M68.68,165.13c-15.44-16.55-35.76-29.21-56.52-39.05,13.1,27.6,50.93,50.47,79.47,58.71-8.27-6.45-15.89-12.09-22.95-19.66Z"/><path class="cls-1" d="M199.7,172.5l13.04-.27,8.27-.55c13.22-7.01,25.69-15.42,35.89-27.27-19.81,5.65-38.75,9.7-58.59,10.29l1.39,17.8Z"/><circle class="cls-1" cx="97.46" cy="60.62" r="5.05"/></svg>