<svg xmlns="http://www.w3.org/2000/svg" xmlns:xlink="http://www.w3.org/1999/xlink" width="1080" zoomAndPan="magnify" viewBox="0 0 810 809.999993" height="1080" preserveAspectRatio="xMidYMid meet" version="1.0"><defs><g/><clipPath id="980ff31e57"><path d="M 116 36 L 195 36 L 195 134.078125 L 116 134.078125 Z M 116 36 " clip-rule="nonzero"/></clipPath><clipPath id="93c4a45c16"><rect x="0" width="505" y="0" height="135"/></clipPath></defs><rect x="-81" width="972" fill="#ffffff" y="-80.999999" height="971.999992" fill-opacity="1"/><rect x="-81" width="972" fill="#ffffff" y="-80.999999" height="971.999992" fill-opacity="1"/><g transform="matrix(1, 0, 0, 1, 152, 356)"><g clip-path="url(#93c4a45c16)"><g fill="#2f77d6" fill-opacity="1"><g transform="translate(0.468368, 104.591869)"><g><path d="M 20.875 0 C 19.1875 0 17.191406 0.164062 14.890625 0.5 C 12.597656 0.84375 10.441406 1.015625 8.421875 1.015625 C 6.515625 1.015625 4.914062 0.734375 3.625 0.171875 C 2.332031 -0.390625 1.6875 -1.515625 1.6875 -3.203125 C 1.6875 -4.429688 1.960938 -5.351562 2.515625 -5.96875 C 3.078125 -6.59375 3.75 -7.378906 4.53125 -8.328125 C 5.320312 -9.285156 6 -10.773438 6.5625 -12.796875 C 7.125 -14.816406 7.40625 -17.789062 7.40625 -21.71875 L 7.40625 -62.453125 C 7.40625 -66.378906 7.125 -69.351562 6.5625 -71.375 C 6 -73.394531 5.320312 -74.878906 4.53125 -75.828125 C 3.75 -76.785156 3.078125 -77.570312 2.515625 -78.1875 C 1.960938 -78.8125 1.6875 -79.738281 1.6875 -80.96875 C 1.6875 -82.65625 2.332031 -83.78125 3.625 -84.34375 C 4.914062 -84.90625 6.515625 -85.1875 8.421875 -85.1875 C 10.441406 -85.1875 12.597656 -85.015625 14.890625 -84.671875 C 17.191406 -84.335938 19.1875 -84.171875 20.875 -84.171875 C 22.5625 -84.171875 24.640625 -84.253906 27.109375 -84.421875 C 29.578125 -84.585938 32.015625 -84.753906 34.421875 -84.921875 C 36.835938 -85.097656 38.773438 -85.1875 40.234375 -85.1875 C 53.585938 -85.1875 63.992188 -81.453125 71.453125 -73.984375 C 78.921875 -66.523438 82.65625 -55.894531 82.65625 -42.09375 C 82.65625 -28.28125 78.921875 -17.640625 71.453125 -10.171875 C 63.992188 -2.710938 53.585938 1.015625 40.234375 1.015625 C 38.773438 1.015625 36.835938 0.925781 34.421875 0.75 C 32.015625 0.582031 29.578125 0.414062 27.109375 0.25 C 24.640625 0.0820312 22.5625 0 20.875 0 Z M 34.671875 -12.296875 C 34.671875 -9.816406 36.078125 -8.578125 38.890625 -8.578125 C 42.140625 -8.578125 44.742188 -9.695312 46.703125 -11.9375 C 48.671875 -14.1875 50.1875 -17.078125 51.25 -20.609375 C 52.320312 -24.148438 53.050781 -27.828125 53.4375 -31.640625 C 53.832031 -35.460938 54.03125 -38.945312 54.03125 -42.09375 C 54.03125 -45.113281 53.804688 -48.472656 53.359375 -52.171875 C 52.910156 -55.878906 52.15625 -59.445312 51.09375 -62.875 C 50.03125 -66.300781 48.515625 -69.132812 46.546875 -71.375 C 44.578125 -73.625 42.023438 -74.75 38.890625 -74.75 C 36.078125 -74.75 34.671875 -73.515625 34.671875 -71.046875 Z M 34.671875 -12.296875 "/></g></g></g><g fill="#2f77d6" fill-opacity="1"><g transform="translate(79.591286, 104.591869)"><g><path d="M 21.375 0 C 19.695312 0 17.707031 0.164062 15.40625 0.5 C 13.101562 0.84375 10.941406 1.015625 8.921875 1.015625 C 7.015625 1.015625 5.414062 0.734375 4.125 0.171875 C 2.832031 -0.390625 2.1875 -1.515625 2.1875 -3.203125 C 2.1875 -4.429688 2.46875 -5.351562 3.03125 -5.96875 C 3.59375 -6.59375 4.265625 -7.378906 5.046875 -8.328125 C 5.835938 -9.285156 6.507812 -10.773438 7.0625 -12.796875 C 7.625 -14.816406 7.90625 -17.789062 7.90625 -21.71875 C 7.90625 -26.875 7.929688 -30.601562 7.984375 -32.90625 C 8.046875 -35.207031 8.078125 -36.890625 8.078125 -37.953125 C 8.078125 -39.023438 8.078125 -40.234375 8.078125 -41.578125 C 8.078125 -44.609375 7.597656 -46.710938 6.640625 -47.890625 C 5.691406 -49.066406 4.738281 -49.992188 3.78125 -50.671875 C 2.832031 -51.347656 2.359375 -52.414062 2.359375 -53.875 C 2.359375 -55.550781 2.914062 -56.695312 4.03125 -57.3125 C 5.15625 -57.9375 6.753906 -58.472656 8.828125 -58.921875 C 10.910156 -59.367188 13.410156 -60.097656 16.328125 -61.109375 C 19.921875 -62.453125 22.390625 -63.65625 23.734375 -64.71875 C 25.078125 -65.789062 26.085938 -66.660156 26.765625 -67.328125 C 27.441406 -68.003906 28.507812 -68.34375 29.96875 -68.34375 C 31.988281 -68.34375 33.332031 -67.441406 34 -65.640625 C 34.675781 -63.847656 35.015625 -61.71875 35.015625 -59.25 L 35.015625 -21.71875 C 35.015625 -17.789062 35.296875 -14.816406 35.859375 -12.796875 C 36.421875 -10.773438 37.09375 -9.285156 37.875 -8.328125 C 38.664062 -7.378906 39.335938 -6.59375 39.890625 -5.96875 C 40.453125 -5.351562 40.734375 -4.429688 40.734375 -3.203125 C 40.734375 -1.515625 40.085938 -0.390625 38.796875 0.171875 C 37.515625 0.734375 35.914062 1.015625 34 1.015625 C 31.875 1.015625 29.660156 0.84375 27.359375 0.5 C 25.054688 0.164062 23.0625 0 21.375 0 Z M 2.1875 -73.0625 C 1.0625 -76.425781 1.648438 -80.070312 3.953125 -84 C 6.253906 -87.925781 9.765625 -91.125 14.484375 -93.59375 C 18.410156 -95.613281 22 -96.625 25.25 -96.625 C 30.1875 -96.625 33.382812 -94.601562 34.84375 -90.5625 C 36.082031 -87.082031 35.550781 -83.4375 33.25 -79.625 C 30.945312 -75.8125 27.4375 -72.613281 22.71875 -70.03125 C 18.6875 -68.007812 15.039062 -67 11.78125 -67 C 6.957031 -67 3.757812 -69.019531 2.1875 -73.0625 Z M 2.1875 -73.0625 "/></g></g></g><g clip-path="url(#980ff31e57)"><g fill="#2f77d6" fill-opacity="1"><g transform="translate(114.944085, 104.591869)"><g><path d="M 20.875 28.453125 C 19.1875 28.453125 17.191406 28.617188 14.890625 28.953125 C 12.597656 29.285156 10.441406 29.453125 8.421875 29.453125 C 6.515625 29.453125 4.914062 29.171875 3.625 28.609375 C 2.332031 28.054688 1.6875 26.9375 1.6875 25.25 C 1.6875 24.019531 1.960938 23.09375 2.515625 22.46875 C 3.078125 21.851562 3.75 21.066406 4.53125 20.109375 C 5.320312 19.160156 6 17.675781 6.5625 15.65625 C 7.125 13.632812 7.40625 10.660156 7.40625 6.734375 C 7.40625 2.921875 7.40625 -1.507812 7.40625 -6.5625 C 7.40625 -11.613281 7.429688 -16.632812 7.484375 -21.625 C 7.546875 -26.625 7.578125 -30.945312 7.578125 -34.59375 C 7.578125 -38.238281 7.578125 -40.566406 7.578125 -41.578125 C 7.578125 -44.609375 7.097656 -46.710938 6.140625 -47.890625 C 5.191406 -49.066406 4.238281 -49.992188 3.28125 -50.671875 C 2.332031 -51.347656 1.859375 -52.414062 1.859375 -53.875 C 1.859375 -55.550781 2.414062 -56.695312 3.53125 -57.3125 C 4.65625 -57.9375 6.253906 -58.472656 8.328125 -58.921875 C 10.410156 -59.367188 12.910156 -60.097656 15.828125 -61.109375 C 19.421875 -62.453125 21.890625 -63.65625 23.234375 -64.71875 C 24.578125 -65.789062 25.582031 -66.660156 26.25 -67.328125 C 26.925781 -68.003906 27.992188 -68.34375 29.453125 -68.34375 C 31.472656 -68.34375 32.820312 -67.441406 33.5 -65.640625 C 34.175781 -63.847656 34.515625 -61.71875 34.515625 -59.25 L 34.515625 -59.09375 C 34.515625 -57.289062 34.65625 -56.414062 34.9375 -56.46875 C 35.21875 -56.53125 35.75 -57.148438 36.53125 -58.328125 C 37.3125 -59.503906 38.40625 -60.878906 39.8125 -62.453125 C 41.21875 -64.023438 43.039062 -65.398438 45.28125 -66.578125 C 47.53125 -67.753906 50.222656 -68.34375 53.359375 -68.34375 C 59.085938 -68.34375 63.882812 -66.660156 67.75 -63.296875 C 71.625 -59.929688 74.539062 -55.640625 76.5 -50.421875 C 78.46875 -45.203125 79.425781 -39.617188 79.375 -33.671875 C 79.320312 -27.722656 78.253906 -22.140625 76.171875 -16.921875 C 74.097656 -11.703125 71.007812 -7.40625 66.90625 -4.03125 C 62.8125 -0.664062 57.679688 1.015625 51.515625 1.015625 C 48.148438 1.015625 45.234375 0.507812 42.765625 -0.5 C 40.296875 -1.507812 38.332031 -2.800781 36.875 -4.375 C 35.96875 -5.382812 35.347656 -5.832031 35.015625 -5.71875 C 34.679688 -5.613281 34.515625 -4.941406 34.515625 -3.703125 L 34.515625 6.734375 C 34.515625 10.660156 34.789062 13.632812 35.34375 15.65625 C 35.90625 17.675781 36.578125 19.160156 37.359375 20.109375 C 38.148438 21.066406 38.828125 21.851562 39.390625 22.46875 C 39.953125 23.09375 40.234375 24.019531 40.234375 25.25 C 40.234375 26.9375 39.585938 28.054688 38.296875 28.609375 C 37.003906 29.171875 35.40625 29.453125 33.5 29.453125 C 31.363281 29.453125 29.144531 29.285156 26.84375 28.953125 C 24.550781 28.617188 22.5625 28.453125 20.875 28.453125 Z M 42.765625 -49.328125 C 39.734375 -49.328125 37.457031 -47.414062 35.9375 -43.59375 C 34.425781 -39.78125 33.671875 -35.347656 33.671875 -30.296875 C 33.671875 -25.242188 34.425781 -20.921875 35.9375 -17.328125 C 37.457031 -13.742188 39.734375 -11.953125 42.765625 -11.953125 C 45.785156 -11.953125 48.050781 -13.773438 49.5625 -17.421875 C 51.082031 -21.066406 51.84375 -25.414062 51.84375 -30.46875 C 51.84375 -35.519531 51.082031 -39.925781 49.5625 -43.6875 C 48.050781 -47.445312 45.785156 -49.328125 42.765625 -49.328125 Z M 42.765625 -49.328125 "/></g></g></g></g><g fill="#2f77d6" fill-opacity="1"><g transform="translate(190.700069, 104.591869)"><g/></g></g><g fill="#2f77d6" fill-opacity="1"><g transform="translate(209.049875, 104.591869)"><g><path d="M 3.359375 -42.09375 C 3.359375 -50.164062 5.125 -57.457031 8.65625 -63.96875 C 12.195312 -70.476562 17.140625 -75.640625 23.484375 -79.453125 C 29.828125 -83.273438 37.09375 -85.1875 45.28125 -85.1875 C 48.539062 -85.1875 51.066406 -85.015625 52.859375 -84.671875 C 54.648438 -84.335938 56.78125 -84.171875 59.25 -84.171875 C 61.164062 -84.171875 62.960938 -84.335938 64.640625 -84.671875 C 66.328125 -85.015625 67.84375 -85.1875 69.1875 -85.1875 C 70.082031 -85.1875 70.867188 -85.015625 71.546875 -84.671875 C 72.222656 -84.335938 72.785156 -83.664062 73.234375 -82.65625 C 75.140625 -77.945312 76.820312 -73.539062 78.28125 -69.4375 C 79.738281 -65.34375 80.492188 -62.03125 80.546875 -59.5 C 80.609375 -56.976562 79.289062 -55.71875 76.59375 -55.71875 C 74.125 -55.71875 72.046875 -56.695312 70.359375 -58.65625 C 68.679688 -60.625 66.941406 -62.925781 65.140625 -65.5625 C 63.347656 -68.207031 61.1875 -70.507812 58.65625 -72.46875 C 56.132812 -74.4375 52.800781 -75.421875 48.65625 -75.421875 C 44.726562 -75.421875 41.53125 -73.847656 39.0625 -70.703125 C 36.59375 -67.554688 34.796875 -63.457031 33.671875 -58.40625 C 32.546875 -53.363281 31.984375 -47.925781 31.984375 -42.09375 C 31.984375 -36.25 32.546875 -30.742188 33.671875 -25.578125 C 34.796875 -20.421875 36.59375 -16.210938 39.0625 -12.953125 C 41.53125 -9.703125 44.835938 -8.078125 48.984375 -8.078125 C 52.691406 -8.078125 55.46875 -8.972656 57.3125 -10.765625 C 59.164062 -12.566406 60.597656 -14.785156 61.609375 -17.421875 C 62.617188 -20.054688 63.546875 -22.691406 64.390625 -25.328125 C 65.234375 -27.972656 66.441406 -30.191406 68.015625 -31.984375 C 69.585938 -33.773438 71.882812 -34.671875 74.90625 -34.671875 C 78.382812 -34.671875 80.96875 -33.460938 82.65625 -31.046875 C 84.34375 -28.640625 84.957031 -25.664062 84.5 -22.125 C 84.050781 -18.59375 82.394531 -15.0625 79.53125 -11.53125 C 76.675781 -8 72.441406 -5.023438 66.828125 -2.609375 C 61.222656 -0.191406 54.039062 1.015625 45.28125 1.015625 C 36.75 1.015625 29.34375 -0.890625 23.0625 -4.703125 C 16.78125 -8.523438 11.925781 -13.691406 8.5 -20.203125 C 5.070312 -26.710938 3.359375 -34.007812 3.359375 -42.09375 Z M 3.359375 -42.09375 "/></g></g></g><g fill="#2f77d6" fill-opacity="1"><g transform="translate(288.509484, 104.591869)"><g><path d="M 20.875 0 C 19.1875 0 17.191406 0.164062 14.890625 0.5 C 12.597656 0.84375 10.441406 1.015625 8.421875 1.015625 C 6.515625 1.015625 4.914062 0.734375 3.625 0.171875 C 2.332031 -0.390625 1.6875 -1.515625 1.6875 -3.203125 C 1.6875 -4.429688 1.960938 -5.351562 2.515625 -5.96875 C 3.078125 -6.59375 3.75 -7.378906 4.53125 -8.328125 C 5.320312 -9.285156 6 -10.773438 6.5625 -12.796875 C 7.125 -14.816406 7.40625 -17.789062 7.40625 -21.71875 C 7.40625 -25.53125 7.40625 -29.960938 7.40625 -35.015625 C 7.40625 -40.066406 7.429688 -45.085938 7.484375 -50.078125 C 7.546875 -55.078125 7.578125 -59.398438 7.578125 -63.046875 C 7.578125 -66.691406 7.578125 -69.019531 7.578125 -70.03125 C 7.578125 -73.0625 7.097656 -75.164062 6.140625 -76.34375 C 5.191406 -77.519531 4.238281 -78.441406 3.28125 -79.109375 C 2.332031 -79.785156 1.859375 -80.851562 1.859375 -82.3125 C 1.859375 -84 2.414062 -85.148438 3.53125 -85.765625 C 4.65625 -86.390625 6.253906 -86.925781 8.328125 -87.375 C 10.410156 -87.820312 12.910156 -88.550781 15.828125 -89.5625 C 19.421875 -90.90625 21.890625 -92.109375 23.234375 -93.171875 C 24.578125 -94.242188 25.582031 -95.113281 26.25 -95.78125 C 26.925781 -96.457031 27.992188 -96.796875 29.453125 -96.796875 C 31.472656 -96.796875 32.820312 -95.894531 33.5 -94.09375 C 34.175781 -92.300781 34.515625 -90.171875 34.515625 -87.703125 L 34.515625 -21.71875 C 34.515625 -17.789062 34.789062 -14.816406 35.34375 -12.796875 C 35.90625 -10.773438 36.578125 -9.285156 37.359375 -8.328125 C 38.148438 -7.378906 38.828125 -6.59375 39.390625 -5.96875 C 39.953125 -5.351562 40.234375 -4.429688 40.234375 -3.203125 C 40.234375 -1.515625 39.585938 -0.390625 38.296875 0.171875 C 37.003906 0.734375 35.40625 1.015625 33.5 1.015625 C 31.363281 1.015625 29.144531 0.84375 26.84375 0.5 C 24.550781 0.164062 22.5625 0 20.875 0 Z M 20.875 0 "/></g></g></g><g fill="#2f77d6" fill-opacity="1"><g transform="translate(323.525592, 104.591869)"><g><path d="M 1.6875 -53.875 C 1.6875 -55.550781 2.242188 -56.695312 3.359375 -57.3125 C 4.484375 -57.9375 6.082031 -58.472656 8.15625 -58.921875 C 10.238281 -59.367188 12.738281 -60.097656 15.65625 -61.109375 C 19.25 -62.453125 21.71875 -63.65625 23.0625 -64.71875 C 24.40625 -65.789062 25.414062 -66.660156 26.09375 -67.328125 C 26.769531 -68.003906 27.835938 -68.34375 29.296875 -68.34375 C 31.316406 -68.34375 32.660156 -67.441406 33.328125 -65.640625 C 34.003906 -63.847656 34.34375 -61.71875 34.34375 -59.25 C 34.457031 -55.769531 34.539062 -52.9375 34.59375 -50.75 C 34.644531 -48.5625 34.671875 -45.726562 34.671875 -42.25 L 34.671875 -34 C 34.671875 -26.9375 35.285156 -22.140625 36.515625 -19.609375 C 37.753906 -17.085938 39.664062 -15.828125 42.25 -15.828125 C 44.832031 -15.828125 46.6875 -17.085938 47.8125 -19.609375 C 48.9375 -22.140625 49.5 -26.992188 49.5 -34.171875 L 49.5 -42.25 C 49.5 -45.0625 49.019531 -47.023438 48.0625 -48.140625 C 47.101562 -49.265625 46.144531 -50.160156 45.1875 -50.828125 C 44.238281 -51.503906 43.765625 -52.519531 43.765625 -53.875 C 43.765625 -55.550781 44.328125 -56.695312 45.453125 -57.3125 C 46.578125 -57.9375 48.175781 -58.472656 50.25 -58.921875 C 52.320312 -59.367188 54.816406 -60.097656 57.734375 -61.109375 C 61.328125 -62.453125 63.796875 -63.65625 65.140625 -64.71875 C 66.492188 -65.789062 67.503906 -66.660156 68.171875 -67.328125 C 68.847656 -68.003906 69.914062 -68.34375 71.375 -68.34375 C 73.394531 -68.34375 74.738281 -67.441406 75.40625 -65.640625 C 76.082031 -63.847656 76.421875 -61.71875 76.421875 -59.25 L 76.59375 -45.625 C 76.59375 -40.570312 76.617188 -36.53125 76.671875 -33.5 C 76.734375 -30.46875 76.765625 -28.050781 76.765625 -26.25 C 76.765625 -24.457031 76.765625 -22.890625 76.765625 -21.546875 C 76.765625 -17.617188 77.046875 -14.644531 77.609375 -12.625 C 78.171875 -10.601562 78.84375 -9.113281 79.625 -8.15625 C 80.414062 -7.207031 81.085938 -6.421875 81.640625 -5.796875 C 82.203125 -5.179688 82.484375 -4.257812 82.484375 -3.03125 C 82.484375 -1.34375 82.003906 -0.222656 81.046875 0.328125 C 80.097656 0.890625 78.835938 1.171875 77.265625 1.171875 C 75.691406 1.171875 73.867188 1.003906 71.796875 0.671875 C 69.722656 0.335938 67.734375 0.171875 65.828125 0.171875 C 64.023438 0.171875 62.476562 0.253906 61.1875 0.421875 C 59.894531 0.585938 58.519531 0.785156 57.0625 1.015625 C 54.9375 1.234375 53.195312 0.835938 51.84375 -0.171875 C 50.5 -1.179688 49.71875 -2.640625 49.5 -4.546875 C 49.039062 -7.910156 48.535156 -9.59375 47.984375 -9.59375 C 47.421875 -9.59375 46.015625 -8.414062 43.765625 -6.0625 C 41.972656 -4.15625 39.363281 -2.5 35.9375 -1.09375 C 32.519531 0.3125 29.296875 1.015625 26.265625 1.015625 C 21.097656 1.015625 17.140625 -0.101562 14.390625 -2.34375 C 11.640625 -4.59375 9.785156 -7.398438 8.828125 -10.765625 C 7.878906 -14.140625 7.40625 -17.566406 7.40625 -21.046875 L 7.40625 -41.578125 C 7.40625 -44.609375 6.925781 -46.710938 5.96875 -47.890625 C 5.019531 -49.066406 4.066406 -49.992188 3.109375 -50.671875 C 2.160156 -51.347656 1.6875 -52.414062 1.6875 -53.875 Z M 1.6875 -53.875 "/></g></g></g><g fill="#2f77d6" fill-opacity="1"><g transform="translate(400.796719, 104.591869)"><g><path d="M 20.875 0 C 19.1875 0 17.191406 0.164062 14.890625 0.5 C 12.597656 0.84375 10.441406 1.015625 8.421875 1.015625 C 6.515625 1.015625 4.914062 0.734375 3.625 0.171875 C 2.332031 -0.390625 1.6875 -1.515625 1.6875 -3.203125 C 1.6875 -4.429688 1.960938 -5.351562 2.515625 -5.96875 C 3.078125 -6.59375 3.75 -7.378906 4.53125 -8.328125 C 5.320312 -9.285156 6 -10.773438 6.5625 -12.796875 C 7.125 -14.816406 7.40625 -17.789062 7.40625 -21.71875 C 7.40625 -25.53125 7.40625 -29.960938 7.40625 -35.015625 C 7.40625 -40.066406 7.429688 -45.085938 7.484375 -50.078125 C 7.546875 -55.078125 7.578125 -59.398438 7.578125 -63.046875 C 7.578125 -66.691406 7.578125 -69.019531 7.578125 -70.03125 C 7.578125 -73.0625 7.097656 -75.109375 6.140625 -76.171875 C 5.191406 -77.242188 4.238281 -78.113281 3.28125 -78.78125 C 2.332031 -79.457031 1.859375 -80.632812 1.859375 -82.3125 C 1.859375 -84 2.414062 -85.148438 3.53125 -85.765625 C 4.65625 -86.390625 6.253906 -86.925781 8.328125 -87.375 C 10.410156 -87.820312 12.910156 -88.550781 15.828125 -89.5625 C 19.421875 -90.90625 21.890625 -92.109375 23.234375 -93.171875 C 24.578125 -94.242188 25.582031 -95.113281 26.25 -95.78125 C 26.925781 -96.457031 27.992188 -96.796875 29.453125 -96.796875 C 31.472656 -96.796875 32.820312 -95.894531 33.5 -94.09375 C 34.175781 -92.300781 34.515625 -90.171875 34.515625 -87.703125 L 34.515625 -59.09375 C 34.515625 -57.289062 34.65625 -56.414062 34.9375 -56.46875 C 35.21875 -56.53125 35.773438 -57.148438 36.609375 -58.328125 C 37.453125 -59.503906 38.578125 -60.878906 39.984375 -62.453125 C 41.390625 -64.023438 43.210938 -65.398438 45.453125 -66.578125 C 47.691406 -67.753906 50.441406 -68.34375 53.703125 -68.34375 C 59.421875 -68.34375 64.1875 -66.660156 68 -63.296875 C 71.820312 -59.929688 74.6875 -55.640625 76.59375 -50.421875 C 78.5 -45.203125 79.425781 -39.617188 79.375 -33.671875 C 79.320312 -27.722656 78.285156 -22.140625 76.265625 -16.921875 C 74.242188 -11.703125 71.15625 -7.40625 67 -4.03125 C 62.84375 -0.664062 57.679688 1.015625 51.515625 1.015625 C 46.578125 1.015625 42.785156 0.957031 40.140625 0.84375 C 37.503906 0.726562 35.398438 0.613281 33.828125 0.5 C 32.265625 0.394531 30.554688 0.285156 28.703125 0.171875 C 26.847656 0.0546875 24.238281 0 20.875 0 Z M 42.765625 -49.328125 C 39.617188 -49.328125 37.316406 -47.414062 35.859375 -43.59375 C 34.398438 -39.78125 33.671875 -35.347656 33.671875 -30.296875 C 33.671875 -25.242188 34.425781 -20.921875 35.9375 -17.328125 C 37.457031 -13.742188 39.734375 -11.953125 42.765625 -11.953125 C 45.785156 -11.953125 48.050781 -13.773438 49.5625 -17.421875 C 51.082031 -21.066406 51.84375 -25.414062 51.84375 -30.46875 C 51.84375 -35.519531 51.082031 -39.925781 49.5625 -43.6875 C 48.050781 -47.445312 45.785156 -49.328125 42.765625 -49.328125 Z M 42.765625 -49.328125 "/></g></g></g><g fill="#2f77d6" fill-opacity="1"><g transform="translate(476.721042, 104.591869)"><g><path d="M 2.53125 -10.9375 C 2.53125 -14.195312 3.675781 -16.972656 5.96875 -19.265625 C 8.269531 -21.566406 11.109375 -22.71875 14.484375 -22.71875 C 17.734375 -22.71875 20.507812 -21.566406 22.8125 -19.265625 C 25.113281 -16.972656 26.265625 -14.195312 26.265625 -10.9375 C 26.265625 -7.570312 25.113281 -4.738281 22.8125 -2.4375 C 20.507812 -0.132812 17.734375 1.015625 14.484375 1.015625 C 11.222656 1.015625 8.414062 -0.160156 6.0625 -2.515625 C 3.707031 -4.878906 2.53125 -7.6875 2.53125 -10.9375 Z M 2.53125 -10.9375 "/></g></g></g></g></g></svg>