<?xml version="1.0" encoding="UTF-8"?><svg id="Layer_2" xmlns="http://www.w3.org/2000/svg" viewBox="0 0 308.09 307.56"><defs><style>.cls-1{fill:#fff;}</style></defs><g id="Layer_1-2"><path class="cls-1" d="M194.91,270.87c-17.57,10.56-36.49,15.06-57.01,8.72-39.95,24.12-87.03,33.05-133.02,25.18l-2.22-4.51c-2.5-11.41-3.08-23.98-2.39-35.76,2.53-43.13,17.73-85.66,45.84-119.21-9.97-22.1-7.58-43.98,4.74-64.41,3.29-4.92,6.86-9.25,12-12.06,6.53-3.78,14.32-3.13,19.87,2l24.37,24.36c28.9-15.13,60.41-23.08,93.32-23.42-2.25-26.26,6.66-51.82,25.02-70.39,2.3-2.32,5.45-1.35,7.65.51l18.19,18.26c7.28,7.31,10.53,17.47,8.67,28.02,10.72-1.7,20.83,1.48,28.37,9l18.25,18.18c1.73,2.17,2.28,5.23.18,7.35-19.45,19.63-42.86,26.1-70.14,25.12l-.3,5c-2.55,42.4-15.94,83.15-42.06,117.05l9.64,10.07c5.87,6.13,5.92,15.12.89,21.8-2.77,3.68-6.06,6.43-9.85,9.15ZM122.42,275.64c26.69-13.46,49.21-32.78,66.4-57.02,23.45-33.06,38.33-75.32,36.63-116.19-.07-1.76.65-3.64,1.72-4.64,1.16-1.08,3.11-1.64,4.87-1.48,22.83,2.06,44.67-1.86,62.54-17.29l-13.24-13.38c-8.32-8.41-21.33-9.15-30.11-1-2.24,2.08-5.96,1.89-7.88-.2s-1.93-5.32.11-7.57c7.89-8.1,8.1-20.83.02-28.92l-14.41-14.43c-15.79,18.28-19.38,40.39-17.24,63.44.22,2.38-1.86,5.35-4.25,5.39l-15.99.31c-31.75.61-62.38,11.86-89.71,28.05-17,10.07-31.48,22.83-44.35,37.73-11.02,12.77-20.35,26.23-27.36,41.69-11.52,25.42-17.84,52.81-18.8,80.76-.28,8.21.03,16.32,1.41,24.41,37.79,4.34,75.6-2.48,109.63-19.64ZM97.12,100.77l-21.95-21.98c-2.94-2.3-6.77-1.73-9.14,1.13-14.13,14.79-19.13,36.42-11.77,55.92,12.97-14.08,26.93-25.25,42.86-35.08ZM195.72,255.42c2.34-2.36,2.04-6.16.07-8.26-2.8-2.99-5.55-5.68-8.69-8.62-10.11,11.51-20.72,21.3-32.75,30.11-1.12.82-1.99,1.56-2.69,2.6,16.37,1.57,32.39-4.02,44.05-15.82Z"/><path class="cls-1" d="M112.94,256.17c-.25-8.58-2.69-16.15-6.73-23.43-10.56-19.02-31.91-37.12-54.48-37.57-3.17-.06-5.54-2.68-5.5-5.5.04-3.12,2.54-5.51,5.8-5.47,9.13.11,17.55,2.4,25.77,6.54,17.35,8.75,31.41,22.97,39.98,40.44,4,8.17,6.21,16.69,6.1,25.62-.04,3.18-3.01,5.25-5.56,5.17-3.04-.09-5.29-2.35-5.38-5.81Z"/><path class="cls-1" d="M53.38,234.47c-3.95,2.81-9.27,1.79-11.94-1.56-2.89-3.61-2.71-9.02.91-12.11,3.99-3.42,9.34-2.63,12.53,1.13,3.08,3.64,2.86,9.45-1.49,12.54Z"/></g></svg>