<svg xmlns="http://www.w3.org/2000/svg" xmlns:xlink="http://www.w3.org/1999/xlink" width="900" zoomAndPan="magnify" viewBox="0 0 675 225" height="300" preserveAspectRatio="xMidYMid meet" version="1.0"><defs><g/><clipPath id="6093756d28"><path d="M 113 34 L 189 34 L 189 128.878906 L 113 128.878906 Z M 113 34 " clip-rule="nonzero"/></clipPath><clipPath id="966c563698"><rect x="0" width="487" y="0" height="129"/></clipPath></defs><g transform="matrix(1, 0, 0, 1, 93, 48)"><g clip-path="url(#966c563698)"><g fill="#2f77d6" fill-opacity="1"><g transform="translate(1.056532, 100.338632)"><g><path d="M 20.125 0 C 18.5 0 16.578125 0.160156 14.359375 0.484375 C 12.140625 0.804688 10.054688 0.96875 8.109375 0.96875 C 6.273438 0.96875 4.734375 0.695312 3.484375 0.15625 C 2.242188 -0.382812 1.625 -1.460938 1.625 -3.078125 C 1.625 -4.273438 1.894531 -5.171875 2.4375 -5.765625 C 2.976562 -6.359375 3.625 -7.113281 4.375 -8.03125 C 5.132812 -8.945312 5.785156 -10.378906 6.328125 -12.328125 C 6.867188 -14.273438 7.140625 -17.144531 7.140625 -20.9375 L 7.140625 -60.203125 C 7.140625 -63.992188 6.867188 -66.863281 6.328125 -68.8125 C 5.785156 -70.757812 5.132812 -72.191406 4.375 -73.109375 C 3.625 -74.023438 2.976562 -74.78125 2.4375 -75.375 C 1.894531 -75.96875 1.625 -76.863281 1.625 -78.0625 C 1.625 -79.675781 2.242188 -80.753906 3.484375 -81.296875 C 4.734375 -81.835938 6.273438 -82.109375 8.109375 -82.109375 C 10.054688 -82.109375 12.140625 -81.945312 14.359375 -81.625 C 16.578125 -81.300781 18.5 -81.140625 20.125 -81.140625 C 21.75 -81.140625 23.75 -81.21875 26.125 -81.375 C 28.507812 -81.539062 30.863281 -81.703125 33.1875 -81.859375 C 35.507812 -82.023438 37.375 -82.109375 38.78125 -82.109375 C 51.65625 -82.109375 61.691406 -78.507812 68.890625 -71.3125 C 76.085938 -64.125 79.6875 -53.878906 79.6875 -40.578125 C 79.6875 -27.265625 76.085938 -17.007812 68.890625 -9.8125 C 61.691406 -2.625 51.65625 0.96875 38.78125 0.96875 C 37.375 0.96875 35.507812 0.882812 33.1875 0.71875 C 30.863281 0.5625 28.507812 0.398438 26.125 0.234375 C 23.75 0.078125 21.75 0 20.125 0 Z M 33.4375 -11.84375 C 33.4375 -9.46875 34.785156 -8.28125 37.484375 -8.28125 C 40.617188 -8.28125 43.132812 -9.359375 45.03125 -11.515625 C 46.925781 -13.679688 48.382812 -16.46875 49.40625 -19.875 C 50.4375 -23.28125 51.140625 -26.820312 51.515625 -30.5 C 51.898438 -34.1875 52.09375 -37.546875 52.09375 -40.578125 C 52.09375 -43.492188 51.875 -46.734375 51.4375 -50.296875 C 51.007812 -53.867188 50.28125 -57.304688 49.25 -60.609375 C 48.21875 -63.910156 46.753906 -66.640625 44.859375 -68.796875 C 42.972656 -70.960938 40.515625 -72.046875 37.484375 -72.046875 C 34.785156 -72.046875 33.4375 -70.859375 33.4375 -68.484375 Z M 33.4375 -11.84375 "/></g></g></g><g fill="#2f77d6" fill-opacity="1"><g transform="translate(77.331954, 100.338632)"><g><path d="M 20.609375 0 C 18.984375 0 17.0625 0.160156 14.84375 0.484375 C 12.625 0.804688 10.539062 0.96875 8.59375 0.96875 C 6.757812 0.96875 5.21875 0.695312 3.96875 0.15625 C 2.726562 -0.382812 2.109375 -1.460938 2.109375 -3.078125 C 2.109375 -4.273438 2.378906 -5.171875 2.921875 -5.765625 C 3.460938 -6.359375 4.109375 -7.113281 4.859375 -8.03125 C 5.617188 -8.945312 6.269531 -10.378906 6.8125 -12.328125 C 7.351562 -14.273438 7.625 -17.144531 7.625 -20.9375 C 7.625 -25.914062 7.648438 -29.507812 7.703125 -31.71875 C 7.765625 -33.9375 7.796875 -35.5625 7.796875 -36.59375 C 7.796875 -37.625 7.796875 -38.785156 7.796875 -40.078125 C 7.796875 -43.003906 7.332031 -45.035156 6.40625 -46.171875 C 5.488281 -47.304688 4.566406 -48.195312 3.640625 -48.84375 C 2.722656 -49.5 2.265625 -50.53125 2.265625 -51.9375 C 2.265625 -53.550781 2.804688 -54.65625 3.890625 -55.25 C 4.972656 -55.851562 6.515625 -56.367188 8.515625 -56.796875 C 10.515625 -57.234375 12.921875 -57.9375 15.734375 -58.90625 C 19.203125 -60.207031 21.582031 -61.367188 22.875 -62.390625 C 24.175781 -63.421875 25.148438 -64.257812 25.796875 -64.90625 C 26.453125 -65.5625 27.484375 -65.890625 28.890625 -65.890625 C 30.835938 -65.890625 32.132812 -65.019531 32.78125 -63.28125 C 33.425781 -61.550781 33.75 -59.5 33.75 -57.125 L 33.75 -20.9375 C 33.75 -17.144531 34.019531 -14.273438 34.5625 -12.328125 C 35.101562 -10.378906 35.753906 -8.945312 36.515625 -8.03125 C 37.273438 -7.113281 37.921875 -6.359375 38.453125 -5.765625 C 38.992188 -5.171875 39.265625 -4.273438 39.265625 -3.078125 C 39.265625 -1.460938 38.644531 -0.382812 37.40625 0.15625 C 36.164062 0.695312 34.625 0.96875 32.78125 0.96875 C 30.726562 0.96875 28.59375 0.804688 26.375 0.484375 C 24.15625 0.160156 22.234375 0 20.609375 0 Z M 2.109375 -70.4375 C 1.023438 -73.675781 1.59375 -77.1875 3.8125 -80.96875 C 6.03125 -84.757812 9.410156 -87.847656 13.953125 -90.234375 C 17.742188 -92.179688 21.207031 -93.15625 24.34375 -93.15625 C 29.101562 -93.15625 32.1875 -91.207031 33.59375 -87.3125 C 34.78125 -83.957031 34.265625 -80.4375 32.046875 -76.75 C 29.828125 -73.070312 26.445312 -69.992188 21.90625 -67.515625 C 18.007812 -65.566406 14.492188 -64.59375 11.359375 -64.59375 C 6.703125 -64.59375 3.617188 -66.539062 2.109375 -70.4375 Z M 2.109375 -70.4375 "/></g></g></g><g clip-path="url(#6093756d28)"><g fill="#2f77d6" fill-opacity="1"><g transform="translate(111.412466, 100.338632)"><g><path d="M 20.125 27.421875 C 18.5 27.421875 16.578125 27.582031 14.359375 27.90625 C 12.140625 28.238281 10.054688 28.40625 8.109375 28.40625 C 6.273438 28.40625 4.734375 28.132812 3.484375 27.59375 C 2.242188 27.050781 1.625 25.96875 1.625 24.34375 C 1.625 23.15625 1.894531 22.257812 2.4375 21.65625 C 2.976562 21.0625 3.625 20.304688 4.375 19.390625 C 5.132812 18.472656 5.785156 17.039062 6.328125 15.09375 C 6.867188 13.144531 7.140625 10.273438 7.140625 6.484375 C 7.140625 2.804688 7.140625 -1.460938 7.140625 -6.328125 C 7.140625 -11.191406 7.164062 -16.03125 7.21875 -20.84375 C 7.269531 -25.664062 7.296875 -29.832031 7.296875 -33.34375 C 7.296875 -36.863281 7.296875 -39.109375 7.296875 -40.078125 C 7.296875 -43.003906 6.835938 -45.035156 5.921875 -46.171875 C 5.003906 -47.304688 4.082031 -48.195312 3.15625 -48.84375 C 2.238281 -49.5 1.78125 -50.53125 1.78125 -51.9375 C 1.78125 -53.550781 2.320312 -54.65625 3.40625 -55.25 C 4.488281 -55.851562 6.03125 -56.367188 8.03125 -56.796875 C 10.03125 -57.234375 12.4375 -57.9375 15.25 -58.90625 C 18.71875 -60.207031 21.097656 -61.367188 22.390625 -62.390625 C 23.691406 -63.421875 24.664062 -64.257812 25.3125 -64.90625 C 25.96875 -65.5625 27 -65.890625 28.40625 -65.890625 C 30.34375 -65.890625 31.632812 -65.019531 32.28125 -63.28125 C 32.9375 -61.550781 33.265625 -59.5 33.265625 -57.125 L 33.265625 -56.953125 C 33.265625 -55.222656 33.398438 -54.382812 33.671875 -54.4375 C 33.941406 -54.5 34.453125 -55.097656 35.203125 -56.234375 C 35.960938 -57.367188 37.019531 -58.691406 38.375 -60.203125 C 39.726562 -61.722656 41.488281 -63.050781 43.65625 -64.1875 C 45.820312 -65.320312 48.414062 -65.890625 51.4375 -65.890625 C 56.957031 -65.890625 61.582031 -64.265625 65.3125 -61.015625 C 69.050781 -57.773438 71.863281 -53.640625 73.75 -48.609375 C 75.644531 -43.578125 76.566406 -38.191406 76.515625 -32.453125 C 76.460938 -26.722656 75.4375 -21.34375 73.4375 -16.3125 C 71.4375 -11.28125 68.457031 -7.140625 64.5 -3.890625 C 60.550781 -0.648438 55.601562 0.96875 49.65625 0.96875 C 46.414062 0.96875 43.601562 0.484375 41.21875 -0.484375 C 38.84375 -1.460938 36.953125 -2.707031 35.546875 -4.21875 C 34.671875 -5.195312 34.070312 -5.628906 33.75 -5.515625 C 33.425781 -5.410156 33.265625 -4.757812 33.265625 -3.5625 L 33.265625 6.484375 C 33.265625 10.273438 33.535156 13.144531 34.078125 15.09375 C 34.617188 17.039062 35.265625 18.472656 36.015625 19.390625 C 36.773438 20.304688 37.425781 21.0625 37.96875 21.65625 C 38.507812 22.257812 38.78125 23.15625 38.78125 24.34375 C 38.78125 25.96875 38.15625 27.050781 36.90625 27.59375 C 35.664062 28.132812 34.128906 28.40625 32.296875 28.40625 C 30.234375 28.40625 28.09375 28.238281 25.875 27.90625 C 23.664062 27.582031 21.75 27.421875 20.125 27.421875 Z M 41.21875 -47.546875 C 38.300781 -47.546875 36.109375 -45.707031 34.640625 -42.03125 C 33.179688 -38.351562 32.453125 -34.078125 32.453125 -29.203125 C 32.453125 -24.335938 33.179688 -20.171875 34.640625 -16.703125 C 36.109375 -13.242188 38.300781 -11.515625 41.21875 -11.515625 C 44.132812 -11.515625 46.320312 -13.269531 47.78125 -16.78125 C 49.25 -20.300781 49.984375 -24.5 49.984375 -29.375 C 49.984375 -34.238281 49.25 -38.484375 47.78125 -42.109375 C 46.320312 -45.734375 44.132812 -47.546875 41.21875 -47.546875 Z M 41.21875 -47.546875 "/></g></g></g></g><g fill="#2f77d6" fill-opacity="1"><g transform="translate(184.442123, 100.338632)"><g/></g></g><g fill="#2f77d6" fill-opacity="1"><g transform="translate(202.131551, 100.338632)"><g><path d="M 3.25 -40.578125 C 3.25 -48.359375 4.953125 -55.382812 8.359375 -61.65625 C 11.765625 -67.9375 16.523438 -72.914062 22.640625 -76.59375 C 28.753906 -80.269531 35.757812 -82.109375 43.65625 -82.109375 C 46.789062 -82.109375 49.222656 -81.945312 50.953125 -81.625 C 52.679688 -81.300781 54.738281 -81.140625 57.125 -81.140625 C 58.957031 -81.140625 60.6875 -81.300781 62.3125 -81.625 C 63.9375 -81.945312 65.398438 -82.109375 66.703125 -82.109375 C 67.566406 -82.109375 68.320312 -81.945312 68.96875 -81.625 C 69.613281 -81.300781 70.15625 -80.65625 70.59375 -79.6875 C 72.425781 -75.132812 74.046875 -70.882812 75.453125 -66.9375 C 76.867188 -62.988281 77.601562 -59.796875 77.65625 -57.359375 C 77.707031 -54.929688 76.4375 -53.71875 73.84375 -53.71875 C 71.457031 -53.71875 69.453125 -54.660156 67.828125 -56.546875 C 66.210938 -58.441406 64.535156 -60.660156 62.796875 -63.203125 C 61.066406 -65.742188 58.984375 -67.960938 56.546875 -69.859375 C 54.117188 -71.753906 50.90625 -72.703125 46.90625 -72.703125 C 43.113281 -72.703125 40.023438 -71.1875 37.640625 -68.15625 C 35.265625 -65.125 33.535156 -61.175781 32.453125 -56.3125 C 31.367188 -51.445312 30.828125 -46.203125 30.828125 -40.578125 C 30.828125 -34.941406 31.367188 -29.632812 32.453125 -24.65625 C 33.535156 -19.6875 35.265625 -15.632812 37.640625 -12.5 C 40.023438 -9.363281 43.21875 -7.796875 47.21875 -7.796875 C 50.789062 -7.796875 53.46875 -8.660156 55.25 -10.390625 C 57.039062 -12.117188 58.421875 -14.253906 59.390625 -16.796875 C 60.367188 -19.335938 61.265625 -21.878906 62.078125 -24.421875 C 62.890625 -26.960938 64.050781 -29.097656 65.5625 -30.828125 C 67.070312 -32.566406 69.289062 -33.4375 72.21875 -33.4375 C 75.570312 -33.4375 78.054688 -32.269531 79.671875 -29.9375 C 81.296875 -27.613281 81.890625 -24.75 81.453125 -21.34375 C 81.023438 -17.9375 79.429688 -14.523438 76.671875 -11.109375 C 73.921875 -7.703125 69.835938 -4.835938 64.421875 -2.515625 C 59.015625 -0.191406 52.09375 0.96875 43.65625 0.96875 C 35.425781 0.96875 28.28125 -0.867188 22.21875 -4.546875 C 16.164062 -8.222656 11.488281 -13.195312 8.1875 -19.46875 C 4.894531 -25.75 3.25 -32.785156 3.25 -40.578125 Z M 3.25 -40.578125 "/></g></g></g><g fill="#2f77d6" fill-opacity="1"><g transform="translate(278.731546, 100.338632)"><g><path d="M 20.125 0 C 18.5 0 16.578125 0.160156 14.359375 0.484375 C 12.140625 0.804688 10.054688 0.96875 8.109375 0.96875 C 6.273438 0.96875 4.734375 0.695312 3.484375 0.15625 C 2.242188 -0.382812 1.625 -1.460938 1.625 -3.078125 C 1.625 -4.273438 1.894531 -5.171875 2.4375 -5.765625 C 2.976562 -6.359375 3.625 -7.113281 4.375 -8.03125 C 5.132812 -8.945312 5.785156 -10.378906 6.328125 -12.328125 C 6.867188 -14.273438 7.140625 -17.144531 7.140625 -20.9375 C 7.140625 -24.613281 7.140625 -28.882812 7.140625 -33.75 C 7.140625 -38.625 7.164062 -43.46875 7.21875 -48.28125 C 7.269531 -53.09375 7.296875 -57.253906 7.296875 -60.765625 C 7.296875 -64.285156 7.296875 -66.535156 7.296875 -67.515625 C 7.296875 -70.429688 6.835938 -72.457031 5.921875 -73.59375 C 5.003906 -74.726562 4.082031 -75.617188 3.15625 -76.265625 C 2.238281 -76.921875 1.78125 -77.953125 1.78125 -79.359375 C 1.78125 -80.984375 2.320312 -82.09375 3.40625 -82.6875 C 4.488281 -83.28125 6.03125 -83.789062 8.03125 -84.21875 C 10.03125 -84.65625 12.4375 -85.359375 15.25 -86.328125 C 18.71875 -87.628906 21.097656 -88.789062 22.390625 -89.8125 C 23.691406 -90.84375 24.664062 -91.679688 25.3125 -92.328125 C 25.96875 -92.984375 27 -93.3125 28.40625 -93.3125 C 30.34375 -93.3125 31.632812 -92.445312 32.28125 -90.71875 C 32.9375 -88.988281 33.265625 -86.929688 33.265625 -84.546875 L 33.265625 -20.9375 C 33.265625 -17.144531 33.535156 -14.273438 34.078125 -12.328125 C 34.617188 -10.378906 35.265625 -8.945312 36.015625 -8.03125 C 36.773438 -7.113281 37.425781 -6.359375 37.96875 -5.765625 C 38.507812 -5.171875 38.78125 -4.273438 38.78125 -3.078125 C 38.78125 -1.460938 38.15625 -0.382812 36.90625 0.15625 C 35.664062 0.695312 34.128906 0.96875 32.296875 0.96875 C 30.234375 0.96875 28.09375 0.804688 25.875 0.484375 C 23.664062 0.160156 21.75 0 20.125 0 Z M 20.125 0 "/></g></g></g><g fill="#2f77d6" fill-opacity="1"><g transform="translate(312.487485, 100.338632)"><g><path d="M 1.625 -51.9375 C 1.625 -53.550781 2.164062 -54.65625 3.25 -55.25 C 4.332031 -55.851562 5.875 -56.367188 7.875 -56.796875 C 9.875 -57.234375 12.28125 -57.9375 15.09375 -58.90625 C 18.550781 -60.207031 20.929688 -61.367188 22.234375 -62.390625 C 23.535156 -63.421875 24.507812 -64.257812 25.15625 -64.90625 C 25.800781 -65.5625 26.828125 -65.890625 28.234375 -65.890625 C 30.179688 -65.890625 31.476562 -65.019531 32.125 -63.28125 C 32.78125 -61.550781 33.109375 -59.5 33.109375 -57.125 C 33.210938 -53.769531 33.289062 -51.035156 33.34375 -48.921875 C 33.40625 -46.816406 33.4375 -44.085938 33.4375 -40.734375 L 33.4375 -32.78125 C 33.4375 -25.96875 34.03125 -21.34375 35.21875 -18.90625 C 36.40625 -16.46875 38.242188 -15.25 40.734375 -15.25 C 43.222656 -15.25 45.003906 -16.46875 46.078125 -18.90625 C 47.160156 -21.34375 47.703125 -26.019531 47.703125 -32.9375 L 47.703125 -40.734375 C 47.703125 -43.441406 47.242188 -45.332031 46.328125 -46.40625 C 45.410156 -47.488281 44.488281 -48.351562 43.5625 -49 C 42.644531 -49.65625 42.1875 -50.632812 42.1875 -51.9375 C 42.1875 -53.550781 42.726562 -54.65625 43.8125 -55.25 C 44.894531 -55.851562 46.4375 -56.367188 48.4375 -56.796875 C 50.4375 -57.234375 52.84375 -57.9375 55.65625 -58.90625 C 59.125 -60.207031 61.503906 -61.367188 62.796875 -62.390625 C 64.097656 -63.421875 65.070312 -64.257812 65.71875 -64.90625 C 66.375 -65.5625 67.40625 -65.890625 68.8125 -65.890625 C 70.757812 -65.890625 72.054688 -65.019531 72.703125 -63.28125 C 73.347656 -61.550781 73.671875 -59.5 73.671875 -57.125 L 73.84375 -43.984375 C 73.84375 -39.109375 73.867188 -35.207031 73.921875 -32.28125 C 73.972656 -29.363281 74 -27.039062 74 -25.3125 C 74 -23.582031 74 -22.066406 74 -20.765625 C 74 -16.984375 74.269531 -14.117188 74.8125 -12.171875 C 75.351562 -10.222656 76 -8.785156 76.75 -7.859375 C 77.507812 -6.941406 78.160156 -6.1875 78.703125 -5.59375 C 79.242188 -5 79.515625 -4.109375 79.515625 -2.921875 C 79.515625 -1.296875 79.054688 -0.210938 78.140625 0.328125 C 77.222656 0.867188 76.003906 1.140625 74.484375 1.140625 C 72.972656 1.140625 71.210938 0.972656 69.203125 0.640625 C 67.203125 0.316406 65.285156 0.15625 63.453125 0.15625 C 61.722656 0.15625 60.234375 0.238281 58.984375 0.40625 C 57.742188 0.570312 56.421875 0.757812 55.015625 0.96875 C 52.960938 1.1875 51.285156 0.8125 49.984375 -0.15625 C 48.679688 -1.132812 47.921875 -2.539062 47.703125 -4.375 C 47.273438 -7.625 46.789062 -9.25 46.25 -9.25 C 45.707031 -9.25 44.351562 -8.113281 42.1875 -5.84375 C 40.457031 -4 37.941406 -2.398438 34.640625 -1.046875 C 31.347656 0.296875 28.238281 0.96875 25.3125 0.96875 C 20.332031 0.96875 16.519531 -0.109375 13.875 -2.265625 C 11.226562 -4.429688 9.441406 -7.132812 8.515625 -10.375 C 7.597656 -13.625 7.140625 -16.925781 7.140625 -20.28125 L 7.140625 -40.078125 C 7.140625 -43.003906 6.675781 -45.035156 5.75 -46.171875 C 4.832031 -47.304688 3.914062 -48.195312 3 -48.84375 C 2.082031 -49.5 1.625 -50.53125 1.625 -51.9375 Z M 1.625 -51.9375 "/></g></g></g><g fill="#2f77d6" fill-opacity="1"><g transform="translate(386.977758, 100.338632)"><g><path d="M 20.125 0 C 18.5 0 16.578125 0.160156 14.359375 0.484375 C 12.140625 0.804688 10.054688 0.96875 8.109375 0.96875 C 6.273438 0.96875 4.734375 0.695312 3.484375 0.15625 C 2.242188 -0.382812 1.625 -1.460938 1.625 -3.078125 C 1.625 -4.273438 1.894531 -5.171875 2.4375 -5.765625 C 2.976562 -6.359375 3.625 -7.113281 4.375 -8.03125 C 5.132812 -8.945312 5.785156 -10.378906 6.328125 -12.328125 C 6.867188 -14.273438 7.140625 -17.144531 7.140625 -20.9375 C 7.140625 -24.613281 7.140625 -28.882812 7.140625 -33.75 C 7.140625 -38.625 7.164062 -43.46875 7.21875 -48.28125 C 7.269531 -53.09375 7.296875 -57.253906 7.296875 -60.765625 C 7.296875 -64.285156 7.296875 -66.535156 7.296875 -67.515625 C 7.296875 -70.429688 6.835938 -72.398438 5.921875 -73.421875 C 5.003906 -74.453125 4.082031 -75.289062 3.15625 -75.9375 C 2.238281 -76.59375 1.78125 -77.734375 1.78125 -79.359375 C 1.78125 -80.984375 2.320312 -82.09375 3.40625 -82.6875 C 4.488281 -83.28125 6.03125 -83.789062 8.03125 -84.21875 C 10.03125 -84.65625 12.4375 -85.359375 15.25 -86.328125 C 18.71875 -87.628906 21.097656 -88.789062 22.390625 -89.8125 C 23.691406 -90.84375 24.664062 -91.679688 25.3125 -92.328125 C 25.96875 -92.984375 27 -93.3125 28.40625 -93.3125 C 30.34375 -93.3125 31.632812 -92.445312 32.28125 -90.71875 C 32.9375 -88.988281 33.265625 -86.929688 33.265625 -84.546875 L 33.265625 -56.953125 C 33.265625 -55.222656 33.398438 -54.382812 33.671875 -54.4375 C 33.941406 -54.5 34.484375 -55.097656 35.296875 -56.234375 C 36.109375 -57.367188 37.191406 -58.691406 38.546875 -60.203125 C 39.898438 -61.722656 41.65625 -63.050781 43.8125 -64.1875 C 45.976562 -65.320312 48.628906 -65.890625 51.765625 -65.890625 C 57.285156 -65.890625 61.882812 -64.265625 65.5625 -61.015625 C 69.238281 -57.773438 71.992188 -53.640625 73.828125 -48.609375 C 75.671875 -43.578125 76.566406 -38.191406 76.515625 -32.453125 C 76.460938 -26.722656 75.460938 -21.34375 73.515625 -16.3125 C 71.566406 -11.28125 68.585938 -7.140625 64.578125 -3.890625 C 60.578125 -0.648438 55.601562 0.96875 49.65625 0.96875 C 44.894531 0.96875 41.242188 0.914062 38.703125 0.8125 C 36.160156 0.707031 34.128906 0.597656 32.609375 0.484375 C 31.097656 0.378906 29.445312 0.269531 27.65625 0.15625 C 25.875 0.0507812 23.363281 0 20.125 0 Z M 41.21875 -47.546875 C 38.1875 -47.546875 35.96875 -45.707031 34.5625 -42.03125 C 33.15625 -38.351562 32.453125 -34.078125 32.453125 -29.203125 C 32.453125 -24.335938 33.179688 -20.171875 34.640625 -16.703125 C 36.109375 -13.242188 38.300781 -11.515625 41.21875 -11.515625 C 44.132812 -11.515625 46.320312 -13.269531 47.78125 -16.78125 C 49.25 -20.300781 49.984375 -24.5 49.984375 -29.375 C 49.984375 -34.238281 49.25 -38.484375 47.78125 -42.109375 C 46.320312 -45.734375 44.132812 -47.546875 41.21875 -47.546875 Z M 41.21875 -47.546875 "/></g></g></g><g fill="#2f77d6" fill-opacity="1"><g transform="translate(460.169696, 100.338632)"><g><path d="M 2.4375 -10.546875 C 2.4375 -13.679688 3.546875 -16.359375 5.765625 -18.578125 C 7.984375 -20.796875 10.710938 -21.90625 13.953125 -21.90625 C 17.085938 -21.90625 19.765625 -20.796875 21.984375 -18.578125 C 24.203125 -16.359375 25.3125 -13.679688 25.3125 -10.546875 C 25.3125 -7.304688 24.203125 -4.578125 21.984375 -2.359375 C 19.765625 -0.140625 17.085938 0.96875 13.953125 0.96875 C 10.816406 0.96875 8.113281 -0.164062 5.84375 -2.4375 C 3.570312 -4.707031 2.4375 -7.410156 2.4375 -10.546875 Z M 2.4375 -10.546875 "/></g></g></g></g></g></svg>